<mxfile host="app.diagrams.net" modified="2021-06-05T09:09:23.990Z" agent="5.0 (Windows NT 10.0; Win64; x64) AppleWebKit/537.36 (KHTML, like Gecko) Chrome/88.0.4324.182 Safari/537.36" etag="KwDSP32GI3A_SpDl5-8l" version="14.7.6" type="github">
  <diagram id="FVo132AoFcTc3FGHa9BK" name="Page-1">
    <mxGraphModel dx="1227" dy="745" grid="1" gridSize="10" guides="1" tooltips="1" connect="1" arrows="1" fold="1" page="1" pageScale="1" pageWidth="3300" pageHeight="4681" math="0" shadow="0">
      <root>
        <mxCell id="0" />
        <mxCell id="1" parent="0" />
        <mxCell id="dfchjHA0WuOU6OchB_so-11" value="" style="edgeStyle=orthogonalEdgeStyle;rounded=0;orthogonalLoop=1;jettySize=auto;html=1;" edge="1" parent="1" source="dfchjHA0WuOU6OchB_so-1" target="dfchjHA0WuOU6OchB_so-2">
          <mxGeometry relative="1" as="geometry" />
        </mxCell>
        <mxCell id="dfchjHA0WuOU6OchB_so-1" value="default.general_menu(menu)" style="shape=process;whiteSpace=wrap;html=1;backgroundOutline=1;" vertex="1" parent="1">
          <mxGeometry x="360" y="120" width="240" height="70" as="geometry" />
        </mxCell>
        <mxCell id="dfchjHA0WuOU6OchB_so-21" value="" style="edgeStyle=orthogonalEdgeStyle;rounded=0;orthogonalLoop=1;jettySize=auto;html=1;" edge="1" parent="1" source="dfchjHA0WuOU6OchB_so-2" target="dfchjHA0WuOU6OchB_so-20">
          <mxGeometry relative="1" as="geometry" />
        </mxCell>
        <mxCell id="dfchjHA0WuOU6OchB_so-2" value="DECLARE lists = []" style="rounded=1;whiteSpace=wrap;html=1;" vertex="1" parent="1">
          <mxGeometry x="365" y="240" width="230" height="40" as="geometry" />
        </mxCell>
        <mxCell id="dfchjHA0WuOU6OchB_so-14" value="" style="edgeStyle=orthogonalEdgeStyle;rounded=0;orthogonalLoop=1;jettySize=auto;html=1;" edge="1" parent="1" source="dfchjHA0WuOU6OchB_so-4" target="dfchjHA0WuOU6OchB_so-5">
          <mxGeometry relative="1" as="geometry" />
        </mxCell>
        <mxCell id="dfchjHA0WuOU6OchB_so-4" value="PRINT(&quot;Username/ID: &quot;)" style="rounded=1;whiteSpace=wrap;html=1;" vertex="1" parent="1">
          <mxGeometry x="365" y="400" width="230" height="40" as="geometry" />
        </mxCell>
        <mxCell id="dfchjHA0WuOU6OchB_so-15" value="" style="edgeStyle=orthogonalEdgeStyle;rounded=0;orthogonalLoop=1;jettySize=auto;html=1;" edge="1" parent="1" source="dfchjHA0WuOU6OchB_so-5" target="dfchjHA0WuOU6OchB_so-6">
          <mxGeometry relative="1" as="geometry" />
        </mxCell>
        <mxCell id="dfchjHA0WuOU6OchB_so-5" value="READ username" style="shape=parallelogram;perimeter=parallelogramPerimeter;whiteSpace=wrap;html=1;fixedSize=1;" vertex="1" parent="1">
          <mxGeometry x="366" y="480" width="229" height="50" as="geometry" />
        </mxCell>
        <mxCell id="dfchjHA0WuOU6OchB_so-16" value="" style="edgeStyle=orthogonalEdgeStyle;rounded=0;orthogonalLoop=1;jettySize=auto;html=1;" edge="1" parent="1" source="dfchjHA0WuOU6OchB_so-6" target="dfchjHA0WuOU6OchB_so-7">
          <mxGeometry relative="1" as="geometry" />
        </mxCell>
        <mxCell id="dfchjHA0WuOU6OchB_so-6" value="PRINT(&quot;   Password: &quot;)" style="rounded=1;whiteSpace=wrap;html=1;" vertex="1" parent="1">
          <mxGeometry x="365" y="570" width="230" height="40" as="geometry" />
        </mxCell>
        <mxCell id="dfchjHA0WuOU6OchB_so-17" value="" style="edgeStyle=orthogonalEdgeStyle;rounded=0;orthogonalLoop=1;jettySize=auto;html=1;" edge="1" parent="1" source="dfchjHA0WuOU6OchB_so-7" target="dfchjHA0WuOU6OchB_so-8">
          <mxGeometry relative="1" as="geometry" />
        </mxCell>
        <mxCell id="dfchjHA0WuOU6OchB_so-7" value="READ password" style="shape=parallelogram;perimeter=parallelogramPerimeter;whiteSpace=wrap;html=1;fixedSize=1;" vertex="1" parent="1">
          <mxGeometry x="366" y="650" width="229" height="50" as="geometry" />
        </mxCell>
        <mxCell id="dfchjHA0WuOU6OchB_so-18" value="" style="edgeStyle=orthogonalEdgeStyle;rounded=0;orthogonalLoop=1;jettySize=auto;html=1;" edge="1" parent="1" source="dfchjHA0WuOU6OchB_so-8" target="dfchjHA0WuOU6OchB_so-9">
          <mxGeometry relative="1" as="geometry" />
        </mxCell>
        <mxCell id="dfchjHA0WuOU6OchB_so-8" value="APPEND username TO lists" style="rounded=1;whiteSpace=wrap;html=1;" vertex="1" parent="1">
          <mxGeometry x="365" y="740" width="230" height="40" as="geometry" />
        </mxCell>
        <mxCell id="dfchjHA0WuOU6OchB_so-19" value="" style="edgeStyle=orthogonalEdgeStyle;rounded=0;orthogonalLoop=1;jettySize=auto;html=1;" edge="1" parent="1" source="dfchjHA0WuOU6OchB_so-9" target="dfchjHA0WuOU6OchB_so-10">
          <mxGeometry relative="1" as="geometry" />
        </mxCell>
        <mxCell id="dfchjHA0WuOU6OchB_so-9" value="APPEND password TO lists" style="rounded=1;whiteSpace=wrap;html=1;" vertex="1" parent="1">
          <mxGeometry x="365" y="820" width="230" height="40" as="geometry" />
        </mxCell>
        <mxCell id="dfchjHA0WuOU6OchB_so-10" value="RETURN lists" style="ellipse;whiteSpace=wrap;html=1;" vertex="1" parent="1">
          <mxGeometry x="435" y="920" width="90" height="80" as="geometry" />
        </mxCell>
        <mxCell id="dfchjHA0WuOU6OchB_so-22" value="" style="edgeStyle=orthogonalEdgeStyle;rounded=0;orthogonalLoop=1;jettySize=auto;html=1;" edge="1" parent="1" source="dfchjHA0WuOU6OchB_so-20" target="dfchjHA0WuOU6OchB_so-4">
          <mxGeometry relative="1" as="geometry" />
        </mxCell>
        <mxCell id="dfchjHA0WuOU6OchB_so-20" value="print_title(main_title)" style="shape=process;whiteSpace=wrap;html=1;backgroundOutline=1;" vertex="1" parent="1">
          <mxGeometry x="360" y="320" width="240" height="40" as="geometry" />
        </mxCell>
      </root>
    </mxGraphModel>
  </diagram>
</mxfile>
